<?xml version="1.0" encoding="UTF-8"?>
<svg id="Layer_1" xmlns="http://www.w3.org/2000/svg" xmlns:xlink="http://www.w3.org/1999/xlink" version="1.1" viewBox="0 0 280 56">
  <!-- Generator: Adobe Illustrator 29.2.1, SVG Export Plug-In . SVG Version: 2.1.0 Build 116)  -->
  <defs>
    <style>
      .st0 {
        fill: none;
      }

      .st1 {
        clip-path: url(#clippath);
      }
    </style>
    <clipPath id="clippath">
      <rect class="st0" y=".4" width="280" height="55"/>
    </clipPath>
  </defs>
  <g class="st1">
    <g>
      <path d="M34.3,38.2c0,2.1-.3,4.2-1.1,6.2s-2,3.7-3.5,5.2c-3.1,3-7.3,4.4-12.7,4.4H4.5c-2.3,0-3.5-1.2-3.5-3.5V5.4c0-2.3,1.2-3.5,3.5-3.5h22.5c.4,0,.9,0,1.3,0,.4.1.8.3,1.1.6.3.3.6.7.7,1.1.1.4.2.8.1,1.2,0,.4,0,.8-.1,1.2-.1.4-.4.8-.7,1-.3.3-.7.5-1.1.6s-.9.2-1.3,0H7.5v15.3h9.2c5.7,0,10,1.4,13,4.2,1.5,1.4,2.7,3.1,3.5,4.9.8,1.9,1.1,3.9,1.1,5.9ZM27.8,38.2c0-1.2-.2-2.5-.7-3.6-.5-1.1-1.2-2.1-2.2-3-2.2-1.7-5-2.6-7.9-2.5H7.5v18.8h9.2c2.9.1,5.8-.8,8-2.7,1-.9,1.8-2,2.4-3.3.5-1.2.8-2.6.7-3.9"/>
      <path d="M17,55H4.5C1.6,55,0,53.4,0,50.5V5.4C0,2.5,1.6.9,4.5.9h22.5c.6,0,1.1,0,1.7.2.5.2,1,.5,1.4.9.4.4.7.8.9,1.4.2.5.3,1.1.2,1.6,0,.5,0,1.1-.2,1.6-.2.5-.5,1-.9,1.4-.4.4-.9.7-1.4.9-.5.2-1.1.2-1.7.2H8.6v13.3h8.2c5.9,0,10.6,1.5,13.7,4.4,1.6,1.5,2.9,3.3,3.7,5.3.8,2,1.2,4.1,1.2,6.3,0,2.2-.3,4.5-1.2,6.5-.8,2.1-2.1,4-3.7,5.6-3.3,3.1-7.8,4.7-13.4,4.7ZM4.5,2.9c-1.8,0-2.5.7-2.5,2.5v45.1c0,1.8.7,2.5,2.5,2.5h12.5c5.1,0,9.1-1.3,12-4.2,1.4-1.4,2.6-3.1,3.3-4.9.7-1.8,1.1-3.8,1-5.8,0-1.9-.3-3.8-1-5.5-.7-1.7-1.8-3.3-3.2-4.6-2.7-2.6-7-3.9-12.3-3.9H6.5V6.9h20.4c1.8,0,2.2-.8,2.2-2s-.4-2-2.2-2H4.5ZM16.7,49H6.5v-20.8h10.5c3.1-.2,6.1.8,8.5,2.7,1.1.9,1.9,2,2.5,3.3.6,1.3.8,2.6.8,4,0,1.5-.2,3-.8,4.4-.6,1.4-1.5,2.6-2.6,3.6-2.4,2-5.5,3-8.6,2.9M8.5,47h8.2c2.7.1,5.3-.7,7.3-2.4.9-.8,1.6-1.8,2.1-2.9.5-1.1.7-2.3.6-3.5,0-1.1-.2-2.2-.6-3.2-.4-1-1.1-1.9-2-2.6-2-1.6-4.6-2.4-7.2-2.2h-8.5v16.9Z"/>
      <path d="M53,30.9v17.1h15.7c.4,0,.9,0,1.3,0,.4.1.8.3,1.1.6.3.3.6.7.7,1.1.1.4.2.8.1,1.3,0,.4,0,.8-.1,1.2-.1.4-.4.8-.7,1-.3.3-.7.5-1.1.6-.4.1-.9.1-1.3,0h-18.7c-2.3,0-3.5-1.2-3.5-3.5V5.4c0-2.3,1.2-3.5,3.5-3.5h18.7c.4,0,.9,0,1.3,0,.4.1.8.3,1.1.6.3.3.5.7.7,1,.1.4.2.8.1,1.2,0,.4,0,.8-.1,1.2-.1.4-.4.8-.7,1-.3.3-.7.5-1.1.6-.4.1-.9.2-1.3,0h-15.7v17.1h14.3c.4,0,.9,0,1.3,0,.4.1.8.3,1.1.6.3.3.5.7.7,1.1s.2.8.1,1.2c0,.4,0,.8-.1,1.2-.1.4-.4.8-.7,1.1-.3.3-.7.5-1.1.6-.4.1-.9.1-1.3,0h-14.3Z"/>
      <path d="M68.6,55h-18.7c-2.9,0-4.5-1.6-4.5-4.5V5.4c0-2.9,1.6-4.5,4.5-4.5h18.7c.6,0,1.1,0,1.7.2.5.2,1,.5,1.4.9.4.4.7.8.9,1.4.2.5.3,1.1.2,1.6,0,.5,0,1.1-.2,1.6-.2.5-.5,1-.9,1.4-.4.4-.9.7-1.4.9-.5.2-1.1.2-1.7.2h-14.6v15.1h13.3c.6,0,1.1,0,1.7.2.5.2,1,.5,1.4.9.4.4.7.8.9,1.4.2.5.3,1.1.2,1.6,0,.5,0,1.1-.2,1.6-.2.5-.5,1-.9,1.4-.4.4-.9.7-1.4.9-.5.2-1.1.2-1.7.2h-13.3v15.1h14.6c.6,0,1.1,0,1.7.2.5.2,1,.5,1.4.9.4.4.7.8.9,1.4.2.5.3,1.1.2,1.6,0,.5,0,1.1-.2,1.6-.2.5-.5,1-.9,1.4-.4.4-.9.7-1.4.9-.5.2-1.1.2-1.7.2ZM49.9,2.9c-1.8,0-2.5.7-2.5,2.5v45.1c0,1.8.7,2.5,2.5,2.5h18.7c1.8,0,2.2-.8,2.2-2s-.6-2-2.2-2h-16.7v-19.1h15.3c1.8,0,2.2-.8,2.2-2s-.4-2-2.2-2h-15.3V6.9h16.7c1.8,0,2.2-.8,2.2-2s-.6-2-2.2-2h-18.7Z"/>
      <path d="M92.6,34.5v16.5c0,.9-.3,1.8-.9,2.5-.6.6-1.5.9-2.4.9s-1.7-.3-2.4-.9c-.6-.7-.9-1.6-.9-2.5V5.4c0-2.3,1.2-3.5,3.5-3.5h12.9c2.3-.1,4.5.2,6.6,1,2.1.8,4,2,5.7,3.5,1.6,1.5,2.9,3.4,3.7,5.4.8,2,1.2,4.2,1.1,6.4,0,2.1-.4,4.3-1.2,6.3-.8,2-2.1,3.8-3.7,5.3-1.6,1.5-3.5,2.8-5.5,3.6-2.1.8-4.3,1.2-6.5,1.1h-10.1ZM92.6,7.4v21.5h9.6c1.4,0,2.9-.2,4.2-.7,1.3-.5,2.6-1.3,3.6-2.3,1-1,1.8-2.2,2.3-3.5.5-1.3.8-2.7.7-4.1,0-2.8-.9-5.5-2.7-7.6-1.8-2.1-4.7-3.2-8.3-3.2h-9.3Z"/>
      <path d="M89.4,55.4c-.6,0-1.2,0-1.7-.3-.5-.2-1-.5-1.4-.9-.8-.9-1.2-2-1.2-3.2V5.4c0-2.9,1.6-4.5,4.5-4.5h12.9c2.4-.1,4.8.3,7,1.1,2.2.8,4.3,2.1,6,3.7,1.7,1.6,3,3.6,3.9,5.8.9,2.2,1.3,4.5,1.2,6.8,0,2.3-.4,4.6-1.3,6.7-.9,2.1-2.2,4-3.9,5.7-1.7,1.6-3.7,2.9-5.8,3.7-2.2.9-4.5,1.3-6.9,1.2h-9.1v15.5c0,1.2-.4,2.3-1.2,3.2-.4.4-.9.7-1.4.9-.5.2-1.1.3-1.7.3M89.6,2.9c-1.8,0-2.5.7-2.5,2.5v45.6c0,.3,0,.7.1,1,.1.3.3.6.5.9.4.4,1,.6,1.6.6s1.2-.2,1.6-.6c.2-.3.4-.5.5-.9.1-.3.1-.6.1-1v-17.5h11.1c2.1,0,4.2-.3,6.1-1.1,1.9-.8,3.7-1.9,5.2-3.4,1.5-1.4,2.7-3.1,3.4-4.9.8-1.9,1.2-3.9,1.1-5.9,0-2-.3-4-1-5.9-.8-1.9-1.9-3.6-3.3-5.1-1.5-1.5-3.4-2.6-5.4-3.4-2-.8-4.2-1.1-6.3-1h-12.9ZM102.3,30h-10.6V6.4h10.4c4.1,0,7.1,1.2,9.2,3.6,2,2.3,3,5.2,3,8.3,0,1.5-.2,3.1-.8,4.5-.6,1.4-1.4,2.7-2.5,3.8-1.1,1.1-2.4,2-3.9,2.6-1.5.6-3,.9-4.6.8M93.6,27.9h8.6c1.3,0,2.6-.2,3.8-.7,1.2-.5,2.3-1.2,3.2-2.1.9-.9,1.6-2,2.1-3.2.5-1.2.7-2.5.6-3.7,0-2.5-.8-5-2.5-7-1.6-1.9-4.1-2.9-7.6-2.9h-8.3v19.5Z"/>
      <path d="M136.9,30.9v17.1h15.7c.4,0,.9,0,1.3,0,.4.1.8.3,1.1.6.3.3.5.7.7,1.1.1.4.2.8.1,1.3,0,.4,0,.8-.1,1.2-.1.4-.4.8-.7,1.1-.3.3-.7.5-1.1.6-.4.1-.9.1-1.3,0h-18.7c-2.3,0-3.5-1.2-3.5-3.5V5.4c0-2.3,1.2-3.5,3.5-3.5h18.7c.4,0,.9,0,1.3,0,.4.1.8.3,1.1.6.3.3.5.7.7,1.1.1.4.2.8.1,1.2,0,.4,0,.8-.1,1.2-.1.4-.4.8-.7,1.1-.3.3-.7.5-1.1.6-.4.1-.9.1-1.3,0h-15.7v17.1h14.3c.4,0,.9,0,1.3,0,.4.1.8.3,1.1.6.3.3.5.7.7,1.1.1.4.2.8.1,1.2,0,.4,0,.8-.1,1.2-.1.4-.4.8-.7,1-.3.3-.7.5-1.1.6-.4.1-.9.2-1.3,0h-14.3Z"/>
      <path d="M152.6,55h-18.7c-2.9,0-4.5-1.6-4.5-4.5V5.4c0-2.9,1.6-4.5,4.5-4.5h18.7c.6,0,1.1,0,1.7.2.5.2,1,.5,1.4.9s.7.8.9,1.4c.2.5.3,1.1.2,1.6,0,.5,0,1.1-.2,1.6-.2.5-.5,1-.9,1.4-.4.4-.9.7-1.4.9-.5.2-1.1.2-1.7.2h-14.7v15.1h13.3c.6,0,1.1,0,1.7.2.5.2,1,.5,1.4.9.4.4.7.8.9,1.4.2.5.3,1.1.2,1.6,0,.5,0,1.1-.2,1.6-.2.5-.5,1-.9,1.4-.4.4-.9.7-1.4.9-.5.2-1.1.2-1.7.2h-13.3v15.1h14.7c.6,0,1.1,0,1.7.2.5.2,1,.5,1.4.9.4.4.7.8.9,1.4.2.5.3,1.1.2,1.6,0,.5,0,1.1-.2,1.6-.2.5-.5,1-.9,1.4-.4.4-.9.7-1.4.9-.5.2-1.1.2-1.7.2ZM133.9,2.9c-1.8,0-2.5.7-2.5,2.5v45.1c0,1.8.7,2.5,2.5,2.5h18.7c1.8,0,2.2-.8,2.2-2s-.4-2-2.2-2h-16.8v-19.1h15.3c1.8,0,2.2-.8,2.2-2s-.4-2-2.2-2h-15.3V6.9h16.7c1.8,0,2.2-.8,2.2-2s-.4-2-2.2-2h-18.7Z"/>
      <path d="M175.6,51c0,.9-.3,1.8-.9,2.5-.6.6-1.5.9-2.4.9s-1.7-.3-2.4-.9c-.6-.7-1-1.6-.9-2.5V5.4c0-2.3,1.2-3.5,3.5-3.5h18.5c.4,0,.9,0,1.3,0,.4.1.8.3,1.1.6.3.3.5.7.7,1.1.1.4.2.8.1,1.2,0,.4,0,.8-.1,1.2-.1.4-.4.8-.7,1.1-.3.3-.7.5-1.1.6-.4.1-.9.1-1.3,0h-15.5v43.2Z"/>
      <path d="M172.4,55.4c-.6,0-1.2,0-1.7-.3-.5-.2-1-.5-1.4-.9-.8-.9-1.2-2-1.2-3.2V5.4c0-2.9,1.6-4.5,4.5-4.5h18.5c.6,0,1.1,0,1.7.2.5.2,1,.5,1.4.9.4.4.7.8.9,1.4.2.5.3,1.1.2,1.6,0,.5,0,1.1-.2,1.6-.2.5-.5,1-.9,1.4-.4.4-.9.7-1.4.9-.5.2-1.1.2-1.7.2h-14.5v42.2c0,1.2-.4,2.3-1.2,3.2-.4.4-.9.7-1.4.9s-1.1.3-1.7.3M172.6,2.9c-1.8,0-2.5.7-2.5,2.5v45.6c0,.7.2,1.3.6,1.8.4.4,1,.6,1.6.6s1.2-.2,1.6-.6c.2-.3.4-.5.5-.9.1-.3.1-.6.1-1V6.9h16.5c1.8,0,2.2-.8,2.2-2s-.6-2-2.2-2h-18.5Z"/>
      <path d="M245.9,51c0,.9-.3,1.8-.9,2.5-.6.6-1.5.9-2.4.9s-1.7-.3-2.4-.9c-.6-.7-.9-1.6-.9-2.5V13.2h-.2l-26.6,37.8c-.6,1-1.4,1.9-2.3,2.7-.7.5-1.5.7-2.3.7-.4,0-.8,0-1.2-.2-.4-.2-.7-.4-1-.8-.6-.8-.8-1.8-.8-2.8V4.9c0-.9.3-1.8.9-2.5.6-.6,1.5-.9,2.4-.9s1.7.3,2.4.9c.6.7.9,1.6.9,2.5v37.8h.2l26.6-37.8c.7-1,1.4-1.9,2.3-2.7.6-.5,1.4-.7,2.3-.7.4,0,.8,0,1.2.3s.7.4.9.8c.6.8.9,1.8.8,2.8v45.8Z"/>
      <path d="M242.6,55.4c-.6,0-1.2,0-1.7-.3-.5-.2-1-.5-1.4-.9-.8-.9-1.2-2-1.2-3.2V16.2l-24.9,35.5c-.7,1.1-1.5,2-2.5,2.9-.9.7-2,1-3.1.9-1.1,0-2.1-.6-2.9-1.4-.7-1-1-2.2-1-3.4V4.9c0-1.2.4-2.3,1.2-3.2.8-.8,1.9-1.2,3.1-1.2s2.3.4,3.1,1.2c.8.9,1.2,2,1.2,3.2v34.8l24.9-35.4c.7-1.1,1.5-2,2.5-2.9.9-.7,1.9-1,3-.9s2.1.6,2.8,1.4c.7,1,1.1,2.2,1,3.4v45.8c0,1.2-.4,2.3-1.2,3.2-.4.4-.9.7-1.4.9-.5.2-1.1.3-1.7.3M238.8,12.2h1.5l.2,1v37.8c0,.3,0,.7.1,1,.1.3.3.6.5.9.4.4,1,.6,1.6.6s1.2-.2,1.6-.6c.4-.5.7-1.2.6-1.8V5.2c0-.8-.2-1.5-.7-2.1-.4-.4-.9-.6-1.5-.7-.6,0-1.1.2-1.5.5-.8.7-1.5,1.5-2.1,2.5l-26.9,38.2h-1.6v-1c-.1,0-.1-37.8-.1-37.8,0-.6-.2-1.3-.6-1.8-.5-.4-1-.6-1.6-.6s-1.2.2-1.6.6c-.4.5-.6,1.2-.6,1.8v45.7c0,.8.2,1.5.6,2.2.4.4.9.6,1.5.6.6,0,1.1-.2,1.6-.5.8-.7,1.5-1.6,2.1-2.5l27-38.3Z"/>
      <path d="M262.1,10.4V2.2h-1.9c-.4,0-.6-.2-.6-.6s.2-.6.6-.6h5.1c.4,0,.6.2.6.6s-.2.6-.6.6h-1.9v8.3c0,0,0,.2,0,.3,0,0,0,.2-.1.2,0,0-.1.1-.2.1,0,0-.2,0-.2,0,0,0-.2,0-.3,0,0,0-.2,0-.2-.1-.1-.1-.2-.3-.2-.5Z"/>
      <path d="M262.7,11.5c-.1,0-.3,0-.4,0-.1,0-.3-.1-.4-.2-.2-.2-.3-.5-.3-.8V2.6h-1.5c-.1,0-.3,0-.4,0-.1,0-.3-.1-.4-.2-.1,0-.2-.2-.2-.3,0-.1,0-.3,0-.4,0-.1,0-.3,0-.4,0-.1.1-.2.2-.3.1,0,.2-.2.4-.2.1,0,.3,0,.4,0h5.1c.1,0,.3,0,.4,0,.1,0,.3.1.4.2.1,0,.2.2.2.3,0,.1,0,.3,0,.4,0,.1,0,.3,0,.4,0,.1-.1.2-.2.3-.1,0-.2.2-.4.2-.1,0-.3,0-.4,0h-1.5v7.8c0,.3,0,.6-.3.8-.1,0-.2.2-.4.2s-.3,0-.4,0ZM260,1.7s.1,0,.2,0h2.4v8.7c0,0,0,.1,0,.2,0,0,.2,0,.3,0,0,0,0-.1,0-.2V1.8h2.4s.1,0,.2,0c0,0,0,0,0-.1,0,0,0,0,0-.1,0,0-.1,0-.2,0h-5.1s-.1,0-.2,0c0,0,0,0,0,.1,0,0,0,0,0,.1"/>
      <path d="M279,11.5c-.1,0-.3,0-.4,0-.1,0-.2-.1-.4-.2-.1,0-.2-.2-.2-.3,0-.1,0-.2-.1-.4l-.9-6.1-1.9,6.2c0,.2-.2.4-.4.6-.2.1-.4.2-.7.2-.2,0-.5,0-.7-.2-.2-.1-.3-.4-.4-.6l-1.9-6.2-.9,6.1c0,.3-.2.5-.4.7-.2.2-.5.3-.8.2-.1,0-.3,0-.4,0-.1,0-.3-.1-.4-.2,0-.1-.2-.2-.2-.4,0-.1,0-.3,0-.4,0-.2,0-.4,0-.6l1.4-8c0-.2,0-.4.1-.5,0-.2.2-.3.3-.4.1-.1.3-.2.5-.3.2,0,.4,0,.5,0,.3,0,.6,0,.9.2.2.2.4.4.5.7l1.8,5.9,1.9-5.9c0-.3.3-.5.5-.7.2-.2.6-.3.9-.2.4,0,.7.1,1,.4.3.2.4.6.4.9l1.4,8c0,.2,0,.4,0,.6,0,.1,0,.3,0,.4,0,.1-.1.3-.2.4,0,.1-.2.2-.4.2-.1,0-.3,0-.4,0M276.7,2.1h.7v.4c0,0,1.3,8,1.3,8,0,.1,0,.2.2.2s.1,0,.1,0c0,0,0-.1,0-.2,0-.2,0-.3,0-.5l-1.4-8c0-.5-.3-.6-.5-.6-.1,0-.2,0-.3,0,0,0-.2.2-.2.3l-2.2,7.6h-.7v-.3c-.1,0-2.3-7.3-2.3-7.3,0-.1,0-.2-.2-.3,0,0-.2,0-.3,0-.2,0-.5,0-.5.6l-1.4,8c0,.2,0,.3,0,.5v.2h.1q.2,0,.2-.2l1.3-8.4h.7l2.6,8.3c0,.2.1.2.2.2s.2,0,.2-.2l2.5-8.3Z"/>
      <path d="M270.8,2.6l-1.2,8c0,0,0,.2,0,.2,0,0,0,.1-.2.2,0,0-.1,0-.2.1,0,0-.2,0-.2,0-.4,0-.6-.2-.6-.6,0-.2,0-.4,0-.6l1.4-8c.1-.6.4-.9,1-.9.2,0,.4,0,.6.2.2.1.3.3.3.5l2.2,7.3,2.2-7.3c0-.2.2-.4.3-.5.2-.1.4-.2.6-.2.5,0,.9.3,1,.9l1.4,8c0,.2,0,.4,0,.6,0,.4-.2.6-.6.6,0,0-.2,0-.2,0,0,0-.2,0-.2-.1,0,0-.1-.1-.2-.2,0,0,0-.1,0-.2l-1.2-8-2.5,8c0,.1-.1.3-.2.4s-.3.1-.4.1c-.2,0-.3,0-.4-.1-.1,0-.2-.2-.2-.4l-2.5-8h0Z"/>
    </g>
  </g>
</svg>