<svg width="120" height="120" viewBox="0 0 120 120" fill="none" xmlns="http://www.w3.org/2000/svg">
<g clip-path="url(#clip0_247_2490)">
<path d="M112.75 109.42L67.65 4.76006C64.92 -1.58994 55.46 -1.58994 52.73 4.76006L7.63002 109.42C4.83002 115.9 11.91 122.24 18.56 119.23L56.71 101.93C57.8019 101.436 58.9866 101.181 60.185 101.181C61.3835 101.181 62.5681 101.436 63.66 101.93L101.82 119.23C108.47 122.24 115.55 115.9 112.75 109.42ZM60.19 84.5901C57.7569 84.592 55.3778 83.8723 53.3538 82.522C51.3297 81.1717 49.7517 79.2514 48.8192 77.004C47.8867 74.7566 47.6417 72.2832 48.1151 69.8966C48.5886 67.51 49.7593 65.3174 51.4791 63.5962C53.1989 61.875 55.3905 60.7025 57.7767 60.2271C60.163 59.7517 62.6366 59.9947 64.8847 60.9254C67.1328 61.856 69.0544 63.4326 70.4064 65.4555C71.7584 67.4784 72.48 69.8569 72.48 72.2901C72.48 75.5505 71.1855 78.6775 68.881 80.9839C66.5764 83.2904 63.4505 84.5874 60.19 84.5901Z" fill="#5F5F5F"/>
<path d="M60.19 84.5901C58.5459 84.637 56.9091 84.3537 55.3764 83.7569C53.8437 83.1601 52.4463 82.2619 51.2668 81.1156C50.0873 79.9693 49.1497 78.598 48.5095 77.083C47.8692 75.5679 47.5393 73.9399 47.5393 72.2951C47.5393 70.6503 47.8692 69.0222 48.5095 67.5072C49.1497 65.9922 50.0873 64.6209 51.2668 63.4746C52.4463 62.3282 53.8437 61.4301 55.3764 60.8333C56.9091 60.2365 58.5459 59.9532 60.19 60.0001V9.1886e-05C58.6162 -0.028416 57.0689 0.408003 55.7419 1.2547C54.415 2.10141 53.3673 3.32076 52.73 4.76009L7.63002 109.42C4.83002 115.9 11.91 122.24 18.56 119.23L56.71 101.93C57.8032 101.435 58.9898 101.179 60.19 101.18V84.5901Z" fill="#202029"/>
</g>
<defs>
<clipPath id="clip0_247_2490">
<rect width="106.38" height="120" fill="white" transform="translate(7)"/>
</clipPath>
</defs>
</svg>
