<svg width="223" height="24" viewBox="0 0 223 24" fill="none" xmlns="http://www.w3.org/2000/svg">
<path d="M215.234 0.45874C216.813 0.45874 218.186 0.774666 219.353 1.40652C220.528 2.03837 221.43 2.93009 222.058 4.08169C222.686 5.2231 223 6.54285 223 8.04094C223 9.53904 222.686 10.8588 222.058 12.0002C221.43 13.1416 220.528 14.0282 219.353 14.6601C218.177 15.2919 216.804 15.6079 215.234 15.6079H208.787V23.3888H204.224V0.45874H215.234ZM214.992 11.3276C216.05 11.3276 216.876 11.0371 217.468 10.4562C218.069 9.87535 218.37 9.07025 218.37 8.04094C218.37 7.01164 218.069 6.20654 217.468 5.62565C216.876 5.03456 216.05 4.73902 214.992 4.73902H208.787V11.3276H214.992Z" fill="#222025"/>
<path d="M185.095 13.3454C185.095 14.548 185.301 15.5926 185.714 16.4792C186.136 17.3556 186.746 18.0333 187.545 18.5123C188.352 18.9811 189.317 19.2155 190.438 19.2155C191.569 19.2155 192.534 18.9811 193.332 18.5123C194.131 18.0333 194.736 17.3556 195.149 16.4792C195.562 15.6028 195.768 14.5582 195.768 13.3454V0.45874H200.345V13.5747C200.345 15.6028 199.932 17.3964 199.106 18.9556C198.281 20.5047 197.119 21.7072 195.62 22.5633C194.122 23.4194 192.395 23.8474 190.438 23.8474C188.482 23.8474 186.755 23.4194 185.256 22.5633C183.758 21.7072 182.596 20.5047 181.77 18.9556C180.945 17.3964 180.532 15.6028 180.532 13.5747V0.45874H185.095V13.3454Z" fill="#222025"/>
<path d="M165.86 23.8472C163.545 23.8472 161.494 23.353 159.709 22.3644C157.923 21.3657 156.537 19.9644 155.55 18.1606C154.572 16.3568 154.083 14.2778 154.083 11.9236C154.083 9.56947 154.572 7.49048 155.55 5.68665C156.537 3.88282 157.923 2.48664 159.709 1.4981C161.494 0.499366 163.545 0 165.86 0C168.184 0 170.234 0.499366 172.011 1.4981C173.796 2.48664 175.182 3.88282 176.169 5.68665C177.157 7.49048 177.65 9.56947 177.65 11.9236C177.65 14.2778 177.157 16.3568 176.169 18.1606C175.182 19.9644 173.796 21.3657 172.011 22.3644C170.234 23.353 168.184 23.8472 165.86 23.8472ZM165.86 19.2154C167.313 19.2154 168.578 18.9198 169.655 18.3287C170.741 17.7377 171.571 16.8969 172.145 15.8064C172.728 14.7058 173.02 13.4115 173.02 11.9236C173.02 10.4357 172.728 9.14654 172.145 8.05609C171.571 6.95545 170.741 6.10958 169.655 5.5185C168.578 4.92741 167.313 4.63187 165.86 4.63187C164.406 4.63187 163.141 4.92741 162.064 5.5185C160.987 6.10958 160.157 6.95545 159.574 8.05609C158.991 9.14654 158.699 10.4357 158.699 11.9236C158.699 13.4115 158.991 14.7058 159.574 15.8064C160.157 16.8969 160.987 17.7377 162.064 18.3287C163.141 18.9198 164.406 19.2154 165.86 19.2154Z" fill="#222025"/>
<path d="M147.065 23.3888L140.981 14.6754H137.469V23.3888H132.906V0.45874H144.4C145.863 0.45874 147.155 0.759379 148.276 1.36066C149.398 1.95174 150.268 2.78742 150.888 3.86767C151.507 4.94793 151.816 6.19125 151.816 7.59763C151.816 8.80018 151.583 9.88554 151.116 10.8537C150.65 11.8219 149.986 12.6219 149.124 13.2537C148.272 13.8856 147.271 14.3085 146.123 14.5225L152.422 23.3888H147.065ZM137.469 4.55557V10.6397H143.848C144.889 10.6397 145.706 10.3696 146.298 9.82949C146.899 9.28936 147.2 8.5454 147.2 7.59763C147.2 6.64985 146.899 5.9059 146.298 5.36577C145.706 4.82564 144.889 4.55557 143.848 4.55557H137.469Z" fill="#222025"/>
<g filter="url(#filter0_b_157_3572)">
<path d="M118.783 11.8166H129.241V23.3886H125.944L125.715 19.7963C124.845 21.0702 123.719 22.0638 122.337 22.7772C120.964 23.4906 119.367 23.8472 117.545 23.8472C115.41 23.8472 113.485 23.3734 111.771 22.4256C110.057 21.4676 108.707 20.0867 107.72 18.2829C106.733 16.4791 106.239 14.3593 106.239 11.9236C106.239 9.47775 106.737 7.358 107.733 5.56436C108.729 3.76053 110.098 2.38472 111.838 1.43695C113.588 0.478983 115.571 0 117.787 0C119.878 0 121.722 0.382168 123.319 1.1465C124.925 1.90065 126.213 2.95033 127.182 4.29556C128.16 5.64079 128.779 7.18475 129.04 8.92743H124.423C124.235 8.01023 123.84 7.21023 123.239 6.52742C122.646 5.84461 121.884 5.32487 120.95 4.96818C120.017 4.6013 118.963 4.41786 117.787 4.41786C116.37 4.41786 115.136 4.7083 114.086 5.2892C113.045 5.87009 112.242 6.72615 111.677 7.85736C111.121 8.97839 110.842 10.3338 110.842 11.9236C110.842 13.5338 111.139 14.9096 111.731 16.051C112.323 17.1924 113.166 18.0638 114.261 18.6651C115.365 19.2561 116.666 19.5517 118.164 19.5517C119.842 19.5517 121.287 19.2052 122.498 18.5122C123.71 17.809 124.58 16.8307 125.109 15.5771H118.783V11.8166Z" fill="#222025"/>
</g>
<path d="M83.2644 18.9522L90.3844 0.990356H97.4103V23.9204H93.0629V5.63751L85.6063 23.9204H80.8821L73.4255 5.71395V23.9204H69.0781V0.990356H76.104L83.2644 18.9522Z" fill="#222025"/>
<path d="M53.1079 14.4427L52.3811 19.6096H65.5983V23.9204H47.4146L48.9893 12.4554L47.4146 0.990356H65.4637V5.30121H52.3811L53.1079 10.4681H64.7638V14.4427H53.1079Z" fill="#222025"/>
<path d="M33.8152 19.1204L41.0429 0.990356H45.8883L36.3186 23.9204H31.1771L21.6074 0.990356H26.5067L33.8152 19.1204Z" fill="#222025"/>
<path d="M24.7654 23.9205H19.8931L17.9818 19.0899H6.78357L4.87232 23.9205H0L9.43508 0.990417H15.3303L24.7654 23.9205ZM12.3827 4.98025L8.466 14.8707H16.3129L12.3827 4.98025Z" fill="#222025"/>
<defs>
<filter id="filter0_b_157_3572" x="82.1745" y="-24.0648" width="71.1315" height="71.9768" filterUnits="userSpaceOnUse" color-interpolation-filters="sRGB">
<feFlood flood-opacity="0" result="BackgroundImageFix"/>
<feGaussianBlur in="BackgroundImageFix" stdDeviation="12.0324"/>
<feComposite in2="SourceAlpha" operator="in" result="effect1_backgroundBlur_157_3572"/>
<feBlend mode="normal" in="SourceGraphic" in2="effect1_backgroundBlur_157_3572" result="shape"/>
</filter>
</defs>
</svg>
